<svg xmlns="http://www.w3.org/2000/svg" xmlns:xlink="http://www.w3.org/1999/xlink" viewBox="0,0,256,256" width="100px" height="100px"><g fill="none" fill-rule="nonzero" stroke="none" stroke-width="1" stroke-linecap="none" stroke-linejoin="none" stroke-miterlimit="10" stroke-dasharray="" stroke-dashoffset="0" font-family="none" font-weight="none" font-size="none" text-anchor="none" style="mix-blend-mode: normal"><g transform="scale(2.56,2.56)"><path d="M70,18.988h-39c-6.6,0 -12,5.4 -12,12v39c0,6.6 5.4,12 12,12h39c6.6,0 12,-5.4 12,-12v-39c0,-6.6 -5.4,-12 -12,-12z" fill="#339af0" stroke="none" stroke-linecap="butt" stroke-linejoin="miter"></path><path d="M70,82.988h-39c-7.18,0 -13,-5.82 -13,-13v-39c0,-7.18 5.82,-13 13,-13h39c7.18,0 13,5.82 13,13v39c0,7.18 -5.821,13 -13,13zM20,30.988v39c0,6.075 4.925,11 11,11h39c6.075,0 11,-4.925 11,-11v-39c0,-6.075 -4.925,-11 -11,-11h-39c-6.076,0 -11,4.925 -11,11z" fill="#1f212b" stroke="none" stroke-linecap="butt" stroke-linejoin="miter"></path><path d="M67.162,77.988h-33.325c-5.985,0 -10.837,-4.852 -10.837,-10.837v-33.326c0,-5.985 4.852,-10.837 10.837,-10.837h33.663c0.276,0 0.5,0.224 0.5,0.5c0,0.276 -0.224,0.5 -0.5,0.5h-33.663c-5.433,0 -9.837,4.404 -9.837,9.837v33.325c0,5.433 4.405,9.838 9.838,9.838h33.325c5.433,0 9.837,-4.404 9.837,-9.837v-18.663c0,-0.276 0.224,-0.5 0.5,-0.5c0.276,0 0.5,0.224 0.5,0.5v18.662c0,5.986 -4.853,10.838 -10.838,10.838zM77.5,45.567c-0.276,0 -0.5,-0.224 -0.5,-0.5v-4c0,-0.276 0.224,-0.5 0.5,-0.5c0.276,0 0.5,0.224 0.5,0.5v4c0,0.277 -0.224,0.5 -0.5,0.5zM77.5,39.567c-0.276,0 -0.5,-0.224 -0.5,-0.5v-2c0,-0.276 0.224,-0.5 0.5,-0.5c0.276,0 0.5,0.224 0.5,0.5v2c0,0.277 -0.224,0.5 -0.5,0.5z" fill="#1f212b" stroke="none" stroke-linecap="butt" stroke-linejoin="miter"></path><path d="M38.224,31.373c0.988,1.486 3.012,4.655 4.343,6.747c0.785,1.235 0.808,2.81 0.062,4.069l-0.302,0.509c-0.817,1.378 -0.707,3.121 0.281,4.38c1.351,1.721 3.356,4.167 5.263,6.074c1.94,1.939 4.494,4.1 6.267,5.55c1.246,1.019 2.984,1.142 4.358,0.308l0.557,-0.338c1.203,-0.73 2.702,-0.734 3.907,-0.009c2.058,1.238 5.198,3.143 6.69,4.135c0.766,0.509 1.068,1.472 0.747,2.334c-0.96,2.584 -2.529,5.368 -7.497,5.368c-5.718,0 -13.631,-6.189 -19.904,-12.459v0c-0.002,-0.002 -0.005,-0.005 -0.007,-0.007c-0.002,-0.002 -0.005,-0.005 -0.007,-0.007v0c-6.271,-6.273 -12.482,-13.864 -12.482,-19.722c0,-5.33 2.807,-6.718 5.391,-7.679c0.861,-0.32 1.824,-0.018 2.333,0.747z" fill="#ffffff" stroke="none" stroke-linecap="butt" stroke-linejoin="miter"></path><path d="M38.224,31.373c0.988,1.486 3.012,4.655 4.343,6.747c0.785,1.235 0.808,2.81 0.062,4.069l-0.302,0.509c-0.817,1.378 -0.707,3.121 0.281,4.38c1.351,1.721 3.356,4.167 5.263,6.074c1.94,1.939 4.494,4.1 6.267,5.55c1.246,1.019 2.984,1.142 4.358,0.308l0.557,-0.338c1.203,-0.73 2.702,-0.734 3.907,-0.009c2.058,1.238 5.198,3.143 6.69,4.135c0.766,0.509 1.068,1.472 0.747,2.334c-0.96,2.584 -2.529,5.368 -7.497,5.368c-5.718,0 -13.631,-6.189 -19.904,-12.459v0c-0.002,-0.002 -0.005,-0.005 -0.007,-0.007c-0.002,-0.002 -0.005,-0.005 -0.007,-0.007v0c-6.271,-6.273 -12.482,-13.864 -12.482,-19.722c0,-5.33 2.807,-6.718 5.391,-7.679c0.861,-0.32 1.824,-0.018 2.333,0.747z" fill="none" stroke="#1f212b" stroke-linecap="round" stroke-linejoin="round"></path></g></g></svg>